<svg width="94" height="16" viewBox="0 0 94 16" fill="none" xmlns="http://www.w3.org/2000/svg">
<path d="M27.5449 7.49811C27.4111 7.49811 27.207 7.48809 26.912 7.39785C26.605 7.30928 26.5039 7.02186 26.4112 6.3952L25.4834 0.309149C25.4525 0.100264 25.3908 0.00167107 25.2999 0.00167107C25.209 0.00167107 25.1576 0.0818827 25.0752 0.240635L22.2986 5.83874L19.5134 0.309149C19.3797 0.0518033 19.3197 0.00167107 19.2373 0.00167107C19.155 0.00167107 19.095 0.090238 19.0641 0.260688L18.054 6.66257C18.0025 7.00013 17.9202 7.38615 17.6338 7.44631C17.4829 7.47806 17.4108 7.47806 17.3285 7.47806C17.2273 7.47806 17.1639 7.49811 17.1639 7.54657C17.1639 7.63681 17.2462 7.65686 17.3491 7.65686C17.675 7.65686 18.1654 7.62679 18.3592 7.62679C18.5427 7.62679 19.0007 7.65686 19.4294 7.65686C19.582 7.65686 19.6747 7.63681 19.6747 7.54657C19.6747 7.49811 19.6043 7.47806 19.522 7.47806C19.4191 7.47806 19.2751 7.46803 19.0933 7.4296C18.9183 7.38782 18.7863 7.29925 18.7863 7.11042C18.7863 6.95167 18.7966 6.823 18.8172 6.64419L19.3454 2.7673H19.3883C19.745 3.5126 20.3572 4.68736 20.4481 4.89291C20.5716 5.17365 21.3777 6.69265 21.6229 7.1522C21.7858 7.44798 21.887 7.64851 21.9796 7.64851C22.0723 7.64851 22.122 7.55994 22.3552 7.09204L24.5796 2.65701H24.6208L25.2347 6.98509C25.2742 7.26082 25.245 7.38949 25.1833 7.41122C25.1113 7.44297 25.0718 7.47138 25.0718 7.51984C25.0718 7.58 25.1336 7.61175 25.3668 7.63013C25.775 7.66021 27.183 7.68026 27.4385 7.68026C27.5826 7.68026 27.7044 7.65018 27.7044 7.57164C27.7044 7.51148 27.634 7.50145 27.5414 7.50145L27.5449 7.49811ZM31.323 4.08745C31.1087 4.08745 31.0349 4.11753 31.0349 4.19774C31.0349 4.26793 31.107 4.27628 31.1584 4.28631C31.2099 4.29633 31.323 4.29633 31.3728 4.29633C32.822 4.29633 33.8836 3.30204 33.8836 1.88999C33.8836 1.3636 33.5972 0.915749 33.3725 0.706865C33.2096 0.558139 32.7517 0.14037 31.4757 0.14037C31.0058 0.14037 30.4141 0.17045 29.9956 0.17045C29.7092 0.17045 29.0661 0.14037 28.5259 0.14037C28.3732 0.14037 28.3012 0.158752 28.3012 0.228937C28.3012 0.299122 28.3629 0.319175 28.4744 0.319175C28.6168 0.319175 28.79 0.329202 28.8723 0.349255C29.2101 0.417769 29.2908 0.578192 29.3113 0.915749C29.3319 1.23492 29.3319 1.51232 29.3319 3.02297V4.77426C29.3319 5.69001 29.3319 6.47374 29.2805 6.89151C29.241 7.18061 29.1879 7.39785 28.9838 7.43962C28.8929 7.45968 28.7694 7.47806 28.6168 7.47806C28.4933 7.47806 28.4538 7.50814 28.4538 7.5566C28.4538 7.62678 28.5259 7.65686 28.6579 7.65686C29.0661 7.65686 29.7092 7.62679 29.9442 7.62679C30.21 7.62679 30.8514 7.65686 31.5254 7.65686C31.6386 7.65686 31.7209 7.62678 31.7209 7.5566C31.7209 7.50814 31.6695 7.47806 31.558 7.47806C31.4054 7.47806 31.1807 7.45801 31.0366 7.43962C30.7314 7.39785 30.6713 7.18061 30.6405 6.90154C30.589 6.47374 30.589 5.69001 30.589 4.77426V0.795432C30.589 0.686812 30.6182 0.628324 30.6713 0.6066C30.7622 0.578192 30.9149 0.568165 31.0692 0.568165C31.3025 0.568165 31.7226 0.629995 32.0897 0.955855C32.6608 1.45384 32.6916 2.11892 32.6916 2.44812C32.6916 3.46247 31.8959 4.08745 31.3248 4.08745H31.323ZM7.00069 5.80698C6.91837 5.80698 6.89779 5.84709 6.86864 6.00584C6.82748 6.18298 6.69542 6.47374 6.5222 6.66257C6.11403 7.12045 5.5618 7.21904 4.65455 7.21904C3.28768 7.21904 1.44061 6.04428 1.44061 3.67804C1.44061 2.71383 1.63441 1.76967 2.38044 1.10458C2.82806 0.706865 3.41117 0.487954 4.29783 0.487954C5.23766 0.487954 6.03171 0.756997 6.37128 1.10458C6.62511 1.3636 6.75716 1.71118 6.76745 2.01866C6.76745 2.15736 6.78803 2.23924 6.87035 2.23924C6.96125 2.23924 6.98183 2.15903 6.99212 2.0103C7.0127 1.80977 7.00412 1.26333 7.0247 0.935802C7.04528 0.588218 7.07444 0.469572 7.07444 0.38936C7.07444 0.329202 7.03499 0.280741 6.92009 0.269043C6.61481 0.238964 6.28725 0.150397 5.90137 0.100264C5.43317 0.0417769 5.05415 0.00167107 4.42131 0.00167107C2.89666 0.00167107 1.92939 0.399387 1.19365 1.05612C0.214377 1.93009 0 3.10319 0 3.7783C0 4.74251 0.265827 5.85545 1.26568 6.71271C2.1935 7.49811 3.36658 7.79723 4.76603 7.79723C5.41773 7.79723 6.19464 7.72705 6.60281 7.5683C6.77603 7.49811 6.81719 7.44798 6.86864 7.2792C6.96982 6.94164 7.0933 6.07603 7.0933 5.95738C7.0933 5.87717 7.07272 5.80698 7.00069 5.80698ZM12.379 0.00167107C9.31768 0.00167107 8.16347 2.19913 8.16347 3.89862C8.16347 5.5981 9.34684 7.79723 12.2761 7.79723C14.8675 7.79723 16.5002 5.99749 16.5002 3.71814C16.5002 1.4388 14.9206 0.00167107 12.379 0.00167107ZM12.7066 7.29925C10.748 7.29925 9.57322 5.65993 9.57322 3.58947C9.57322 1.11461 10.9109 0.479598 12.084 0.479598C13.7579 0.479598 15.0733 1.86158 15.0733 4.08745C15.0733 6.9617 13.4217 7.29925 12.7066 7.29925ZM93.9194 6.14454C93.8474 6.14454 93.8251 6.18298 93.8062 6.29494C93.7342 6.70268 93.6107 6.91156 93.3466 7.03188C93.0825 7.15053 92.652 7.15053 92.3862 7.15053C91.3469 7.15053 91.1822 7.00013 91.1634 6.31499C91.1531 6.0259 91.1634 5.11182 91.1634 4.77426V3.98718C91.1634 3.9287 91.1719 3.88859 91.2234 3.88859C91.4686 3.88859 92.4788 3.89862 92.6743 3.92034C93.0516 3.95878 93.194 4.1075 93.2454 4.30636C93.2763 4.4367 93.2763 4.56538 93.2866 4.66564C93.2866 4.71577 93.3071 4.75421 93.3792 4.75421C93.4701 4.75421 93.4701 4.64559 93.4701 4.56538C93.4701 4.49686 93.5009 4.09915 93.5129 3.90029C93.5541 3.39395 93.5935 3.23353 93.5935 3.17337C93.5935 3.11321 93.5644 3.09316 93.5232 3.09316C93.4718 3.09316 93.4306 3.14329 93.3586 3.2235C93.266 3.3221 93.1133 3.35218 92.8698 3.37223C92.6349 3.39061 91.4618 3.39061 91.2388 3.39061C91.1771 3.39061 91.1668 3.3505 91.1668 3.28199V0.768694C91.1668 0.698509 91.1874 0.666759 91.2388 0.666759C91.4429 0.666759 92.5131 0.688483 92.6863 0.706865C93.1957 0.767023 93.3003 0.88567 93.3689 1.06615C93.4203 1.18479 93.4306 1.35357 93.4306 1.42376C93.4306 1.51399 93.4512 1.56245 93.5232 1.56245C93.5953 1.56245 93.6141 1.5023 93.6261 1.45384C93.6467 1.33185 93.6639 0.894025 93.6759 0.795432C93.7067 0.339228 93.7582 0.220582 93.7582 0.150397C93.7582 0.100264 93.7479 0.0618298 93.6965 0.0618298C93.645 0.0618298 93.5833 0.090238 93.5318 0.100264C93.4512 0.120317 93.2883 0.142041 93.0928 0.160423C92.899 0.17045 90.8684 0.17045 90.5425 0.17045C90.3985 0.17045 90.1652 0.160423 89.8994 0.150397C89.6456 0.150397 89.3489 0.14037 89.0728 0.14037C88.9201 0.14037 88.8464 0.158752 88.8464 0.228937C88.8464 0.299122 88.9081 0.319175 89.0213 0.319175C89.1637 0.319175 89.3369 0.329202 89.4192 0.349255C89.7571 0.417769 89.8377 0.578192 89.8582 0.915749C89.8771 1.23492 89.8771 1.51232 89.8771 3.02297V4.77426C89.8771 5.69001 89.8771 6.47374 89.8274 6.89151C89.7862 7.18061 89.7348 7.39785 89.5307 7.43962C89.4381 7.45968 89.3146 7.47806 89.1619 7.47806C89.0385 7.47806 88.999 7.50814 88.999 7.5566C88.999 7.62678 89.0711 7.65686 89.2014 7.65686C89.4055 7.65686 89.6713 7.63681 89.9063 7.63681C90.1498 7.62678 90.3762 7.62679 90.4877 7.62679C90.7946 7.62679 91.1102 7.63681 91.5492 7.65686C91.9883 7.66689 92.5491 7.68694 93.3157 7.68694C93.7016 7.68694 93.7959 7.68694 93.8662 7.4296C93.9194 7.22907 94 6.55228 94 6.32502C94 6.22475 94 6.14621 93.9211 6.14621L93.9194 6.14454ZM69.6056 0.230608C69.6056 0.152068 69.5027 0.142041 69.3707 0.142041C68.8716 0.142041 68.484 0.172121 68.3708 0.172121C68.1564 0.172121 67.6677 0.142041 67.136 0.142041C66.9834 0.142041 66.8702 0.152068 66.8702 0.230608C66.8702 0.290767 66.9113 0.320846 67.0331 0.320846C67.1772 0.320846 67.4207 0.320846 67.5733 0.381005C67.8186 0.48127 67.9112 0.66843 67.9215 1.27503L68.0244 5.73847H67.9746C67.7997 5.57972 66.4226 4.14761 65.7297 3.47082C64.2393 2.02868 62.6873 0.437822 62.5655 0.309149C62.3923 0.132015 62.2997 0.00167107 62.1882 0.00167107C62.0853 0.00167107 62.0561 0.142041 62.0561 0.339228L61.9635 6.19467C61.9532 7.06029 61.9138 7.34772 61.648 7.42793C61.5056 7.46803 61.3221 7.47639 61.1883 7.47639C61.0871 7.47639 61.0254 7.49644 61.0254 7.55493C61.0254 7.6435 61.1197 7.65519 61.2501 7.65519C61.7817 7.65519 62.2602 7.62511 62.3528 7.62511C62.5483 7.62511 62.9548 7.65519 63.6185 7.65519C63.7609 7.65519 63.8535 7.63514 63.8535 7.55493C63.8535 7.49477 63.7917 7.47639 63.6802 7.47639C63.5156 7.47639 63.3218 7.46636 63.1503 7.4062C62.9462 7.33769 62.8124 7.07867 62.7919 6.30162L62.6821 2.15569H62.7113C62.8948 2.34452 64.0267 3.55772 65.1397 4.63389C66.2013 5.65659 67.5064 6.95836 68.1513 7.55493C68.2628 7.66522 68.3845 7.77217 68.496 7.77217C68.5886 7.77217 68.6298 7.6836 68.6298 7.46636L68.7413 1.19315C68.7515 0.635008 68.8322 0.426124 69.1168 0.347584C69.2403 0.317504 69.3209 0.317504 69.4238 0.317504C69.5456 0.317504 69.6073 0.285754 69.6073 0.227266L69.6056 0.230608ZM88.0883 7.49811C87.9563 7.49811 87.7522 7.48809 87.4555 7.39785C87.1502 7.30928 87.0473 7.02186 86.9564 6.3952L86.0269 0.309149C85.996 0.100264 85.9343 0.00167107 85.8434 0.00167107C85.7525 0.00167107 85.701 0.0818827 85.6204 0.240635L82.8455 5.83874L80.0586 0.309149C79.9249 0.0518033 79.8648 0.00167107 79.7825 0.00167107C79.7002 0.00167107 79.6419 0.090238 79.611 0.260688L78.5992 6.66257C78.5494 7.00013 78.4688 7.38615 78.1824 7.44631C78.0281 7.47806 77.956 7.47806 77.8754 7.47806C77.8669 7.47806 77.86 7.47806 77.8514 7.47806C77.8411 7.47806 77.8326 7.47806 77.8223 7.47806C77.7005 7.47806 77.5479 7.46803 77.3935 7.43962C77.1791 7.38782 76.8842 7.24912 76.4948 6.35677C75.8414 4.84277 74.2104 0.865617 73.9652 0.320846C73.8623 0.0919091 73.8023 0.00167107 73.7097 0.00167107C73.6085 0.00167107 73.5467 0.110291 73.425 0.399387L70.8627 6.56398C70.6586 7.06196 70.4648 7.39785 69.9967 7.45968C69.9143 7.4697 69.772 7.47973 69.6794 7.47973C69.5971 7.47973 69.5576 7.49978 69.5576 7.55827C69.5576 7.63848 69.6176 7.65854 69.7514 7.65854C70.2813 7.65854 70.8404 7.62846 70.9553 7.62846C71.2709 7.62846 71.7099 7.65854 72.0375 7.65854C72.149 7.65854 72.2107 7.63848 72.2107 7.55827C72.2107 7.49811 72.1781 7.47973 72.0581 7.47973H71.9037C71.5865 7.47973 71.4956 7.35106 71.4956 7.17225C71.4956 7.05194 71.5453 6.81297 71.6482 6.56565L72.2004 5.20206C72.221 5.14357 72.2399 5.12352 72.2931 5.12352H74.5672C74.6186 5.12352 74.6495 5.14357 74.6701 5.1937L75.4864 7.24244C75.5379 7.36108 75.4658 7.44965 75.3938 7.47138C75.2926 7.4814 75.2515 7.49978 75.2515 7.55994C75.2515 7.63013 75.3732 7.63013 75.5567 7.64015C76.3748 7.66021 77.1191 7.66021 77.4878 7.66021C77.6302 7.66021 77.7314 7.65686 77.8034 7.65018C77.8308 7.65686 77.8617 7.66021 77.896 7.66021C78.2236 7.66021 78.7124 7.63013 78.9079 7.63013C79.0897 7.63013 79.5493 7.66021 79.9798 7.66021C80.1324 7.66021 80.2233 7.64015 80.2233 7.54992C80.2233 7.50145 80.1513 7.4814 80.0707 7.4814C79.9695 7.4814 79.8254 7.47138 79.6436 7.43294C79.4704 7.39116 79.3366 7.3026 79.3366 7.11377C79.3366 6.95501 79.3469 6.82634 79.3658 6.64754L79.8974 2.77064H79.9386C80.2936 3.51594 80.9076 4.69071 80.9985 4.89625C81.122 5.17699 81.928 6.696 82.1733 7.15554C82.3362 7.45132 82.4374 7.65185 82.53 7.65185C82.6226 7.65185 82.6706 7.56328 82.9056 7.09538L85.1299 2.66035H85.1728L85.7851 6.98843C85.8245 7.26416 85.7954 7.39283 85.7336 7.41456C85.6616 7.44631 85.6222 7.47472 85.6222 7.52318C85.6222 7.58334 85.6822 7.61509 85.9189 7.63347C86.327 7.66355 87.7351 7.6836 87.9906 7.6836C88.1329 7.6836 88.2564 7.65352 88.2564 7.57498C88.2564 7.51482 88.1861 7.5048 88.0935 7.5048L88.0883 7.49811ZM74.3734 4.62554H72.4954C72.4543 4.62554 72.444 4.59546 72.4543 4.55535L73.3924 2.12059C73.4027 2.08049 73.4232 2.02868 73.4541 2.02868C73.485 2.02868 73.4936 2.08049 73.5039 2.12059L74.4231 4.56538C74.4317 4.59546 74.4231 4.62554 74.3717 4.62554H74.3734ZM57.8595 0.142041C57.6657 0.142041 56.9917 0.172121 56.767 0.172121C56.4703 0.172121 56.1428 0.142041 55.8066 0.142041C55.6848 0.142041 55.6334 0.160423 55.6334 0.230608C55.6334 0.290767 55.726 0.31082 55.8169 0.330873C55.9901 0.370979 56.0313 0.48127 56.0313 0.579863C56.0313 0.708536 55.9901 0.877314 55.8889 1.09623C55.7449 1.40537 54.4586 3.59114 54.3574 3.8301C54.1945 3.5527 52.7659 1.15638 52.6235 0.858932C52.5515 0.720233 52.5018 0.599916 52.5018 0.521375C52.5018 0.442835 52.5515 0.362623 52.6441 0.34257C52.7968 0.302465 52.8688 0.292438 52.8688 0.232279C52.8688 0.172121 52.8191 0.143712 52.7162 0.143712C52.2582 0.143712 51.8381 0.173792 51.6237 0.173792C51.2875 0.173792 50.5209 0.143712 50.3374 0.143712C50.2139 0.143712 50.1436 0.173792 50.1436 0.232279C50.1436 0.302465 50.2139 0.322517 50.298 0.322517C50.4215 0.322517 50.593 0.382676 50.7267 0.452861C50.9205 0.561481 51.1761 0.810471 51.4316 1.17811C51.7883 1.69447 53.1552 3.88191 53.2255 4.04233C53.3576 4.32975 53.4605 4.54867 53.4605 5.08508V5.90056C53.4605 6.06099 53.4605 6.47709 53.4313 6.89485C53.4107 7.18395 53.3181 7.40119 53.114 7.44297C53.0231 7.46302 52.8997 7.4814 52.7556 7.4814C52.6441 7.4814 52.5927 7.51148 52.5927 7.55994C52.5927 7.64015 52.675 7.66021 52.8191 7.66021C53.1946 7.66021 53.8395 7.63013 54.0933 7.63013C54.3694 7.63013 55.0108 7.66021 55.654 7.66021C55.7877 7.66021 55.8701 7.63013 55.8701 7.55994C55.8701 7.51148 55.8186 7.4814 55.7054 7.4814C55.5631 7.4814 55.3401 7.46135 55.1961 7.44297C54.8891 7.40119 54.7982 7.18395 54.7759 6.89485C54.7467 6.47709 54.7467 6.06099 54.7467 5.90056V5.08508C54.7467 4.75755 54.7467 4.4484 54.8994 4.09079C55.0829 3.66467 56.5132 1.32683 56.8493 0.930789C57.0723 0.661746 57.1855 0.543099 57.3999 0.442835C57.5525 0.364294 57.7463 0.324188 57.8492 0.324188C57.9607 0.324188 58.043 0.292438 58.043 0.225595C58.043 0.163765 57.971 0.145384 57.8595 0.145384V0.142041ZM50.0407 0.230608C50.0407 0.152068 49.9395 0.142041 49.8058 0.142041C49.305 0.142041 48.9174 0.172121 48.8042 0.172121C48.5915 0.172121 48.101 0.142041 47.5711 0.142041C47.4168 0.142041 47.3053 0.152068 47.3053 0.230608C47.3053 0.290767 47.3447 0.320846 47.4682 0.320846C47.6105 0.320846 47.8558 0.320846 48.0084 0.381005C48.2554 0.48127 48.3463 0.66843 48.3583 1.27503L48.4595 5.73847H48.408C48.2348 5.57972 46.8577 4.14761 46.1631 3.47082C44.6744 2.02868 43.1224 0.437822 43.0006 0.309149C42.8274 0.132015 42.7348 0.00167107 42.6216 0.00167107C42.5187 0.00167107 42.4878 0.142041 42.4878 0.339228L42.3969 6.19467C42.3866 7.06029 42.3437 7.34772 42.0796 7.42793C41.9373 7.46803 41.7538 7.47639 41.62 7.47639C41.5823 7.47639 41.5531 7.47973 41.5291 7.48641C41.5068 7.47973 41.4811 7.47639 41.4468 7.47639C41.3233 7.47639 41.1707 7.46636 41.018 7.43795C40.8037 7.38615 40.507 7.24745 40.1194 6.3551C39.4659 4.8411 37.8332 0.863946 37.588 0.319175C37.4851 0.090238 37.4251 0 37.3342 0C37.2313 0 37.1695 0.10862 37.0495 0.397716L34.489 6.56231C34.2849 7.06029 34.0894 7.39618 33.6212 7.45801C33.5388 7.46803 33.3965 7.47806 33.3039 7.47806C33.2233 7.47806 33.1821 7.49811 33.1821 7.5566C33.1821 7.63681 33.2421 7.65686 33.3759 7.65686C33.9059 7.65686 34.4684 7.62679 34.5799 7.62679C34.8954 7.62679 35.3345 7.65686 35.662 7.65686C35.7752 7.65686 35.837 7.63681 35.837 7.5566C35.837 7.49644 35.8044 7.47806 35.6826 7.47806H35.53C35.2127 7.47806 35.1218 7.34939 35.1218 7.17058C35.1218 7.05026 35.1733 6.8113 35.2744 6.56398L35.8267 5.20038C35.8473 5.1419 35.8678 5.12184 35.9193 5.12184H38.1934C38.2448 5.12184 38.2757 5.1419 38.2963 5.19203L39.1126 7.24077C39.1624 7.35941 39.0921 7.44798 39.02 7.4697C38.9154 7.47973 38.876 7.49811 38.876 7.55827C38.876 7.62846 38.9995 7.62846 39.1812 7.63848C39.9976 7.65854 40.7436 7.65854 41.1106 7.65854C41.3216 7.65854 41.4399 7.65185 41.5068 7.6318C41.5463 7.65185 41.6063 7.65854 41.6835 7.65854C42.2134 7.65854 42.6936 7.62846 42.7845 7.62846C42.9783 7.62846 43.3865 7.65854 44.0502 7.65854C44.1925 7.65854 44.2851 7.63848 44.2851 7.55827C44.2851 7.49811 44.2234 7.47973 44.1119 7.47973C43.949 7.47973 43.7552 7.4697 43.582 7.40955C43.3779 7.34103 43.2458 7.08201 43.2253 6.30497L43.1138 2.15903H43.1446C43.3264 2.34786 44.4601 3.56106 45.5731 4.63723C46.6347 5.65993 47.9398 6.9617 48.583 7.55827C48.6944 7.66856 48.8179 7.77551 48.9294 7.77551C49.022 7.77551 49.0632 7.68694 49.0632 7.4697L49.1746 1.19649C49.1866 0.638351 49.2673 0.429466 49.5519 0.350926C49.6754 0.320846 49.7577 0.320846 49.8589 0.320846C49.9824 0.320846 50.0442 0.289096 50.0442 0.230608H50.0407ZM37.9979 4.62554H36.1199C36.0788 4.62554 36.0685 4.59546 36.0788 4.55535L37.0186 2.12059C37.0289 2.08049 37.0495 2.02868 37.0786 2.02868C37.1095 2.02868 37.1198 2.08049 37.1301 2.12059L38.0476 4.56538C38.0579 4.59546 38.0476 4.62554 37.9979 4.62554Z" fill="#4B4C4E"/>
<path d="M29.3848 10.8295H28.5899V15.5944H31.6221V14.9027H29.3848V10.8295Z" fill="#4B4C4E"/>
<path d="M21.3879 13.4225C21.3022 13.3308 21.2007 13.251 21.0836 13.1848C20.9664 13.1186 20.8352 13.0608 20.6935 13.0116C20.5518 12.9606 20.3997 12.9182 20.237 12.8774C20.0744 12.8418 19.9082 12.8027 19.7368 12.7636C19.5409 12.7195 19.3765 12.6753 19.2436 12.6312C19.1106 12.5853 19.0022 12.5361 18.9217 12.4835C18.8395 12.4325 18.7801 12.3765 18.7451 12.3136C18.7084 12.2508 18.6891 12.1829 18.6891 12.1099C18.6891 12.0199 18.7119 11.9333 18.7608 11.8568C18.8063 11.7787 18.8745 11.7108 18.962 11.6548C19.0494 11.5987 19.1561 11.5546 19.2803 11.5223C19.4045 11.49 19.5461 11.4748 19.7036 11.4748C20.363 11.4748 20.7215 11.7261 20.7775 12.2338H21.5453C21.5366 12.0097 21.4858 11.8127 21.3966 11.6378C21.3057 11.4646 21.1815 11.3168 21.0223 11.1963C20.8614 11.0757 20.669 10.9857 20.4452 10.9229C20.2213 10.8583 19.9712 10.8295 19.6948 10.8295C19.4185 10.8295 19.1876 10.8583 18.9707 10.9229C18.7538 10.9857 18.5684 11.0757 18.4128 11.1895C18.2571 11.3016 18.1364 11.4391 18.0525 11.6004C17.9668 11.7617 17.9248 11.9384 17.9248 12.1302C17.9248 12.3085 17.9528 12.4631 18.0122 12.5972C18.0735 12.7331 18.1627 12.852 18.2851 12.9572C18.4058 13.0608 18.5597 13.1508 18.7433 13.2272C18.927 13.3003 19.1439 13.3648 19.394 13.4191C19.6598 13.4769 19.889 13.5278 20.0744 13.5771C20.2633 13.6263 20.4172 13.6772 20.5379 13.7367C20.6568 13.7961 20.746 13.864 20.802 13.9439C20.8579 14.022 20.8859 14.1222 20.8859 14.2393C20.8859 14.3446 20.8597 14.4431 20.8055 14.5297C20.753 14.618 20.6778 14.6927 20.5798 14.7556C20.4836 14.8184 20.3665 14.8659 20.2318 14.8999C20.0971 14.9322 19.9484 14.9525 19.7875 14.9525C19.6179 14.9525 19.4587 14.9305 19.31 14.8914C19.1614 14.849 19.0302 14.7912 18.9182 14.7131C18.8046 14.635 18.7136 14.5365 18.6401 14.421C18.5702 14.3039 18.5265 14.168 18.5125 14.0135H17.7604C17.7691 14.2597 17.8198 14.4822 17.9125 14.6758C18.0035 14.8727 18.1364 15.0358 18.3078 15.1733C18.481 15.3092 18.6891 15.4127 18.9375 15.4875C19.1858 15.5588 19.4744 15.5944 19.8015 15.5944C20.0726 15.5944 20.321 15.5622 20.5484 15.4943C20.7757 15.428 20.9716 15.3329 21.1378 15.2107C21.3022 15.0884 21.4299 14.9407 21.5226 14.7675C21.6153 14.5959 21.659 14.4024 21.659 14.1935C21.659 14.0237 21.6363 13.8793 21.589 13.752C21.5418 13.6263 21.4753 13.5176 21.3896 13.4242L21.3879 13.4225Z" fill="#4B4C4E"/>
<path d="M63.6274 10.8295H62.7828L61.0783 15.5944H61.8599L62.3077 14.2759H64.1314L64.6064 15.5944H65.4101L63.6291 10.8295H63.6274ZM62.5155 13.6439L63.1693 11.6722H63.234L63.927 13.6439H62.5155Z" fill="#4B4C4E"/>
<path d="M42.7247 12.2343C42.618 11.9404 42.4713 11.6907 42.2812 11.4835C42.0894 11.2745 41.861 11.1149 41.5976 11.001C41.3308 10.8855 41.0373 10.8295 40.7172 10.8295C40.3971 10.8295 40.1053 10.8855 39.8402 11.001C39.5751 11.1149 39.3466 11.2745 39.1566 11.4835C38.9648 11.6907 38.8164 11.9404 38.7097 12.2343C38.6047 12.5282 38.553 12.8527 38.553 13.2094C38.553 13.5661 38.603 13.894 38.708 14.1862C38.8114 14.4801 38.9565 14.7315 39.1466 14.9404C39.335 15.1511 39.5634 15.3108 39.8302 15.4246C40.0953 15.5367 40.3937 15.5944 40.7189 15.5944C41.044 15.5944 41.3441 15.5367 41.6109 15.4229C41.876 15.3091 42.1045 15.1477 42.2945 14.937C42.4829 14.7281 42.6297 14.4767 42.7314 14.1845C42.8331 13.8906 42.8848 13.5678 42.8848 13.2128C42.8848 12.8578 42.8314 12.5316 42.7264 12.2377L42.7247 12.2343ZM42.0127 13.9229C41.9444 14.1369 41.851 14.3187 41.731 14.4716C41.6076 14.6228 41.4592 14.74 41.2874 14.8198C41.1157 14.9014 40.9223 14.9421 40.7105 14.9421C40.4988 14.9421 40.3137 14.9031 40.1436 14.8198C39.9736 14.7383 39.8252 14.6228 39.7035 14.4716C39.5817 14.3187 39.4867 14.1369 39.4167 13.9229C39.3483 13.7105 39.3166 13.471 39.3166 13.2094C39.3166 12.9478 39.3483 12.7117 39.4167 12.4976C39.4817 12.2853 39.5784 12.1018 39.7018 11.9489C39.8252 11.7978 39.9736 11.6805 40.1486 11.5973C40.3204 11.5158 40.5138 11.4733 40.7239 11.4733C40.934 11.4733 41.1274 11.5158 41.3008 11.599C41.4709 11.6822 41.6159 11.8011 41.736 11.954C41.856 12.1069 41.9494 12.2887 42.0161 12.501C42.0811 12.7134 42.1145 12.9495 42.1145 13.2094C42.1145 13.4693 42.0811 13.7105 42.0127 13.9229Z" fill="#4B4C4E"/>
<path d="M75.4839 12.3253C75.4839 12.6765 75.4857 13.0188 75.4875 13.3629C75.4893 13.7053 75.4911 14.0494 75.4911 14.4006L73.163 10.8295H72.341V15.5944H73.1039V14.0968C73.1039 13.7474 73.1021 13.3998 73.0985 13.0557C73.0967 12.7116 73.0932 12.3657 73.0878 12.0163L75.4266 15.5944H76.2396V10.8295H75.4839V12.3253Z" fill="#4B4C4E"/>
<path d="M52.2648 13.7574H53.3961V14.3896C53.2506 14.5799 53.0675 14.7193 52.8467 14.811C52.6259 14.9011 52.3641 14.9453 52.0646 14.9453C51.8455 14.9453 51.6453 14.9079 51.4656 14.8314C51.2841 14.7533 51.1301 14.6411 51.0035 14.4933C50.8734 14.3471 50.7741 14.1653 50.7056 13.9495C50.6338 13.7337 50.5995 13.489 50.5995 13.212C50.5995 12.935 50.6355 12.6937 50.7039 12.4761C50.7758 12.262 50.8717 12.0802 51 11.9323C51.1267 11.7845 51.2773 11.6706 51.457 11.5925C51.6333 11.5143 51.8301 11.4752 52.0475 11.4752C52.4103 11.4752 52.6995 11.55 52.9135 11.7046C53.1257 11.8576 53.2524 12.0717 53.2917 12.3453H54.0705C54.0465 12.104 53.9815 11.8882 53.8771 11.7012C53.7744 11.5109 53.634 11.3529 53.4577 11.2237C53.2849 11.0946 53.0761 10.9943 52.8382 10.928C52.6003 10.8601 52.335 10.8295 52.0423 10.8295C51.7017 10.8295 51.3971 10.8855 51.1198 11.0011C50.846 11.115 50.6132 11.2747 50.4198 11.4837C50.2247 11.691 50.0775 11.9408 49.9731 12.2348C49.8687 12.5288 49.8157 12.8534 49.8157 13.2103C49.8157 13.5671 49.8687 13.9036 49.9731 14.1993C50.0775 14.495 50.2247 14.7448 50.4164 14.9521C50.6081 15.1594 50.8409 15.3175 51.1096 15.4279C51.38 15.5384 51.6846 15.5944 52.0184 15.5944C52.3521 15.5944 52.6345 15.5503 52.8793 15.4619C53.124 15.3769 53.3277 15.2461 53.492 15.0761L53.6323 15.5146H54.1475V13.1338H52.2665V13.7524L52.2648 13.7574Z" fill="#4B4C4E"/>
</svg>
