<svg width="164" height="54" viewBox="0 0 164 54" fill="none" xmlns="http://www.w3.org/2000/svg"><path d="M4 11H25.936C32.368 11 35.488 15.656 35.488 20.792C35.488 25.976 32.128 30.296 25.936 30.296H11.344V42.872H4V11ZM11.344 23.528H25.936C27.376 23.528 28.144 22.52 28.144 21.128V20.216C28.144 18.776 27.376 17.816 25.936 17.816H11.344V23.528ZM49.9221 36.104H67.5861V42.872H42.5781V11H49.9221V36.104Z" fill="#141933"/><path d="M80 0H79V54H80V0Z" fill="#141933"/><path d="M99.192 16.056C99.192 17.72 98.2 19.096 96.28 19.096H90.712V23.624H89V13H96.28C98.2 13 99.192 14.424 99.192 16.056ZM90.712 17.512H96.28C97.144 17.512 97.464 16.888 97.464 16.072C97.464 15.304 97.112 14.568 96.28 14.568H90.712V17.512ZM111.547 13V23.624H109.835V19.096H103.275V23.624H101.563V13H103.275V17.512H109.835V13H111.547ZM114.5 13H116.212V23.624H114.5V13ZM119.172 23.624V13H120.884V22.056H127.092V23.624H119.172ZM129.375 13H131.087V23.624H129.375V13ZM144.239 16.056C144.239 17.72 143.247 19.096 141.327 19.096H135.759V23.624H134.047V13H141.327C143.247 13 144.239 14.424 144.239 16.056ZM135.759 17.512H141.327C142.191 17.512 142.511 16.888 142.511 16.072C142.511 15.304 142.159 14.568 141.327 14.568H135.759V17.512ZM156.911 16.056C156.911 17.72 155.919 19.096 153.999 19.096H148.431V23.624H146.719V13H153.999C155.919 13 156.911 14.424 156.911 16.056ZM148.431 17.512H153.999C154.863 17.512 155.183 16.888 155.183 16.072C155.183 15.304 154.831 14.568 153.999 14.568H148.431V17.512ZM89 41.624V31H90.712V40.056H96.92V41.624H89ZM108.303 36.536C108.303 39.144 106.623 41.832 103.503 41.832C100.383 41.832 98.7188 39.144 98.7188 36.536V31H100.431V36.536C100.431 38.328 101.487 40.136 103.503 40.136C105.519 40.136 106.575 38.312 106.575 36.536V31H108.303V36.536ZM101.615 27.288C101.615 26.84 101.887 26.536 102.367 26.536C102.847 26.536 103.167 26.824 103.167 27.288C103.167 27.768 102.831 28.04 102.367 28.04C101.903 28.04 101.615 27.752 101.615 27.288ZM103.855 27.304C103.855 26.856 104.127 26.552 104.607 26.552C105.071 26.552 105.407 26.824 105.407 27.304C105.407 27.768 105.087 28.072 104.607 28.072C104.127 28.072 103.855 27.752 103.855 27.304ZM110.562 31H120.546V32.568H116.418V41.624H114.706V32.568H110.562V31ZM128.462 37.624C128.462 39.768 127.006 41.832 124.494 41.832C122.142 41.832 120.718 40.056 120.558 38.008L120.542 37.848H122.238L122.254 37.992C122.398 39.144 123.23 40.136 124.494 40.136C125.902 40.136 126.75 38.904 126.75 37.624V31H128.462V37.624ZM133.134 35.512H139.134V37.096H133.134V40.056H141.198V41.624H131.422V31H141.198V32.568H133.134V35.512Z" fill="#141933"/></svg>