<?xml version="1.0" standalone="no"?>
<!DOCTYPE svg PUBLIC "-//W3C//DTD SVG 20010904//EN"
 "http://www.w3.org/TR/2001/REC-SVG-20010904/DTD/svg10.dtd">
<svg version="1.0" xmlns="http://www.w3.org/2000/svg"
 width="1000.000000pt" height="1000.000000pt" viewBox="0 0 1000.000000 1000.000000"
 preserveAspectRatio="xMidYMid meet">
<metadata>
Created by potrace 1.14, written by Peter Selinger 2001-2017
</metadata>
<g transform="translate(0.000000,1000.000000) scale(0.100000,-0.100000)"
fill="#000000" stroke="none">
<path d="M4527 9873 c-70 -236 -195 -527 -365 -848 -65 -123 -90 -168 -150
-275 -14 -25 -35 -63 -47 -85 -81 -148 -348 -565 -504 -785 -108 -154 -377
-509 -400 -530 -4 -3 -24 -27 -46 -55 -22 -27 -44 -55 -50 -61 -5 -6 -26 -30
-45 -54 -31 -40 -97 -117 -110 -130 -3 -3 -20 -23 -39 -45 -206 -243 -687
-728 -932 -939 -19 -16 -52 -45 -74 -65 -22 -20 -64 -56 -94 -81 -29 -25 -59
-50 -65 -55 -35 -34 -334 -269 -468 -369 -151 -111 -555 -388 -613 -419 l-28
-14 39 -29 c22 -16 41 -31 44 -34 3 -4 52 -42 110 -86 217 -166 375 -288 380
-293 14 -17 184 -141 192 -141 8 0 173 111 218 147 8 6 101 76 205 154 105 78
192 145 195 149 7 9 148 120 153 120 2 0 -4 -30 -15 -67 -78 -270 -113 -537
-113 -853 0 -251 11 -366 61 -635 41 -224 163 -566 285 -800 88 -169 258 -433
337 -522 9 -10 46 -52 81 -93 108 -125 280 -293 385 -375 21 -16 44 -35 50
-40 6 -6 27 -22 46 -35 19 -13 40 -29 47 -36 6 -6 34 -25 62 -43 28 -18 51
-35 51 -37 0 -5 -303 -155 -390 -193 -30 -13 -82 -37 -115 -52 -33 -14 -85
-38 -115 -51 -55 -25 -315 -129 -465 -186 -145 -56 -328 -119 -484 -168 l-153
-48 49 -46 c44 -40 107 -96 252 -225 25 -22 61 -54 81 -72 19 -17 45 -40 58
-51 12 -11 54 -48 92 -82 38 -34 78 -70 88 -79 11 -9 52 -45 92 -81 40 -36 81
-70 90 -77 17 -12 17 -12 217 61 18 7 36 15 39 19 4 4 13 7 21 7 7 0 32 9 56
19 23 11 71 31 107 46 75 30 71 28 215 90 61 26 144 63 185 82 41 19 93 43
115 53 91 41 446 218 530 263 50 27 124 67 165 89 81 43 227 128 327 188 l61
38 79 -13 c203 -34 282 -40 543 -39 210 0 406 15 523 40 12 3 36 7 52 9 41 6
73 13 95 20 10 3 27 8 37 10 16 3 75 17 123 29 69 18 238 77 348 123 319 132
627 323 877 544 151 133 380 387 484 537 27 38 29 39 61 10 14 -13 72 -63 130
-113 58 -49 112 -97 121 -105 8 -8 33 -30 55 -49 21 -19 53 -47 70 -63 l32
-30 73 89 c41 48 76 90 79 93 3 3 64 75 135 160 169 202 160 191 186 220 11
14 38 45 58 70 20 25 43 52 51 60 8 8 34 38 57 66 38 47 40 52 25 65 -9 8 -69
55 -132 104 -63 49 -117 92 -120 95 -6 7 -186 146 -226 175 -15 11 -53 40 -84
65 -31 25 -67 52 -79 60 l-23 15 20 85 c33 141 46 210 58 297 2 20 6 48 9 62
18 115 26 480 12 636 -6 79 -32 271 -40 310 -23 102 -24 96 61 248 182 323
388 721 496 959 77 171 200 460 246 578 29 74 58 149 65 165 27 64 196 542
193 548 0 1 22 75 51 165 55 172 147 398 224 546 l46 89 -297 180 c-163 98
-333 201 -377 229 l-79 50 -81 -22 c-44 -12 -89 -24 -100 -26 -28 -5 -89 -18
-95 -19 -3 -1 -32 -5 -65 -9 -33 -4 -71 -10 -85 -14 -33 -8 -3450 -15 -3450
-7 0 4 33 64 74 133 71 123 173 309 252 462 22 41 42 77 47 78 4 2 7 8 7 13 0
13 198 363 288 509 l71 115 -147 48 c-81 27 -167 54 -192 61 -25 8 -110 35
-190 61 -80 26 -224 72 -320 102 -96 31 -180 57 -185 59 -6 3 -27 -53 -48
-123z m3687 -2376 c-4 -12 -11 -35 -15 -52 -79 -315 -257 -813 -411 -1155 -49
-108 -169 -364 -172 -368 -3 -2 -24 23 -48 55 -57 77 -57 76 -134 168 -108
130 -272 294 -384 385 -30 25 -60 49 -66 55 -143 126 -456 314 -698 420 -193
84 -503 181 -641 201 -16 3 -52 9 -80 14 -27 5 -72 12 -100 16 -27 3 -59 8
-70 10 -119 23 -622 22 -738 -2 -12 -2 -42 -7 -67 -10 -137 -17 -460 -93 -547
-130 -18 -7 -33 -12 -33 -10 0 3 179 246 203 276 7 8 33 45 59 81 l48 67 1950
0 1951 0 -7 -21z"/>
</g>
</svg>
