<svg width="30" height="30" viewBox="0 0 30 30" xmlns="http://www.w3.org/2000/svg"><path fill-rule="evenodd" clip-rule="evenodd" d="M6.95157 6.95147C7.4202 6.48284 8.18 6.48284 8.64863 6.95147L15.0001 13.3029L21.3516 6.95147C21.8202 6.48284 22.58 6.48284 23.0486 6.95147C23.5173 7.4201 23.5173 8.1799 23.0486 8.64853L16.6972 15L23.0486 21.3515C23.5173 21.8201 23.5173 22.5799 23.0486 23.0485C22.58 23.5172 21.8202 23.5172 21.3516 23.0485L15.0001 16.6971L8.64863 23.0485C8.18 23.5172 7.4202 23.5172 6.95157 23.0485C6.48294 22.5799 6.48294 21.8201 6.95157 21.3515L13.303 15L6.95157 8.64853C6.48294 8.1799 6.48294 7.4201 6.95157 6.95147Z"/></svg>