<?xml version="1.0" encoding="utf-8"?><svg viewBox="0 0 32 78" xmlns="http://www.w3.org/2000/svg" xmlns:xlink="http://www.w3.org/1999/xlink"><style>:root>svg{display:none}:root>svg:target{display:block}</style><svg viewBox="0 0 24 24" id="arrow-type-1" xmlns="http://www.w3.org/2000/svg"><path fill-rule="evenodd" clip-rule="evenodd" d="M12 16.914L3.586 8.5 5 7.086l7 7 7-7L20.414 8.5 12 16.914z"/></svg><svg viewBox="0 0 32 32" id="arrow-type-2" xmlns="http://www.w3.org/2000/svg"><path d="M18.71 7.376a.75.75 0 011.004-.051l.056.051 8.094 8.094.094.113a.753.753 0 01-.094.948l-8.094 8.093a.75.75 0 11-1.06-1.061l7.562-7.564-7.562-7.562-.052-.057a.75.75 0 01.052-1.004z"/><path d="M27.107 15.25l.076.004a.75.75 0 010 1.492l-.076.004H4.667a.75.75 0 010-1.5h22.44z"/></svg><svg viewBox="0 0 30 30" id="close" xmlns="http://www.w3.org/2000/svg"><path fill-rule="evenodd" clip-rule="evenodd" d="M6.952 6.951a1.2 1.2 0 011.697 0L15 13.303l6.352-6.352a1.2 1.2 0 111.697 1.698L16.697 15l6.352 6.352a1.2 1.2 0 11-1.697 1.697L15 16.697 8.65 23.05a1.2 1.2 0 11-1.697-1.697L13.303 15 6.952 8.649a1.2 1.2 0 010-1.698z"/></svg><svg viewBox="0 0 30 30" id="menu-open" xmlns="http://www.w3.org/2000/svg"><path d="M6 10h18v2H6v-2zM6 14h13v2H6v-2zM6 18h18v2H6v-2z"/></svg><svg viewBox="0 0 32 78" id="mouse-scroll" xmlns="http://www.w3.org/2000/svg"><path d="M29.769 15.976c0-7.59-6.163-13.747-13.769-13.747S2.23 8.385 2.23 15.976v19.663c0 7.59 6.164 13.747 13.77 13.747S29.77 43.23 29.77 35.64V15.976zm2 19.663c0 8.698-7.061 15.747-15.769 15.747C7.293 51.386.23 44.337.23 35.64V15.976C.23 7.278 7.294.229 16 .229c8.708 0 15.769 7.049 15.769 15.747v19.663z"/><path d="M17 12.248v9.803h-2v-9.803h2zM17.037 62.63v14.138l-1-.001h-1V62.63h2z"/><path d="M20.107 71.244l.13.005c.952.062 1.199.808 1.262 1.19l.021.221-.043.043-.465.465-1.844 1.84c-.695.695-1.39 1.39-1.843 1.84l-.505.505-.002.002-.002.002-.129-.004c-.954-.061-1.2-.809-1.262-1.19l-.023-.22.044-.045.466-.464 1.843-1.84 1.844-1.841.464-.465.04-.038.004-.006zm-3.328 5.827c-.076-.374-.318-.995-1.107-1.11l1.107 1.11zm3.364-5.54c.076.374.32.993 1.109 1.109l-.563-.564-.546-.545z"/><path d="M12.04 71.367l.006.006.038.038.466.465 1.842 1.84 1.844 1.84.466.465.04.04.002.003.001.001c0 .023-.01 1.415-1.413 1.415l-.004-.004-.025-.024-.015-.015-.465-.465-1.844-1.84-1.842-1.841-.466-.465-.038-.038-.006-.005.022-.222c.066-.398.332-1.194 1.392-1.194zm4.435 4.717c-.789.116-1.031.736-1.107 1.11l.546-.546.561-.564zm-5.579-3.322c.79-.115 1.03-.734 1.107-1.108l-1.107 1.109z"/></svg></svg>