<svg width="32" height="32" viewBox="0 0 32 32" xmlns="http://www.w3.org/2000/svg"><path d="M18.7097 7.37639C18.9843 7.10179 19.4191 7.08433 19.7136 7.32464L19.7703 7.37639L27.864 15.4701L27.9578 15.5834C28.0394 15.7058 28.0838 15.8512 28.0838 16.0004C28.0836 16.1992 28.0046 16.3901 27.864 16.5307L19.7703 24.6235C19.4774 24.9164 19.0026 24.9164 18.7097 24.6235C18.4169 24.3306 18.4169 23.8558 18.7097 23.5629L26.2722 15.9994L18.7097 8.43694L18.658 8.3803C18.4177 8.08572 18.4351 7.651 18.7097 7.37639Z"/><path d="M27.1071 15.25L27.1833 15.2539C27.5615 15.2923 27.8571 15.6116 27.8571 16C27.8571 16.3884 27.5615 16.7077 27.1833 16.7461L27.1071 16.75H4.66667C4.25245 16.75 3.91667 16.4142 3.91667 16C3.91667 15.5858 4.25245 15.25 4.66667 15.25H27.1071Z"/></svg>