<svg width="32" height="78" viewBox="0 0 32 78" xmlns="http://www.w3.org/2000/svg"><path d="M29.7689 15.976C29.7688 8.38519 23.6061 2.22907 16.0003 2.22891C8.39437 2.22891 2.2308 8.38509 2.23077 15.976V35.6391C2.23088 43.2299 8.39442 49.3861 16.0003 49.3861C23.606 49.386 29.7687 43.2298 29.7689 35.6391V15.976ZM31.7689 35.6391C31.7687 44.3372 24.7078 51.386 16.0003 51.3861C7.29268 51.3861 0.230878 44.3373 0.23077 35.6391V15.976C0.230799 7.2777 7.29263 0.228912 16.0003 0.228912C24.7078 0.229074 31.7688 7.2778 31.7689 15.976V35.6391Z"/><path d="M17 12.2481V22.0508H15V12.2481H17Z"/><path d="M17.0369 62.63V76.7677L16.0369 76.7667C15.7315 76.7667 15.3842 76.7677 15.0369 76.7677V62.63C16.0358 62.6299 17.0347 62.6299 17.0369 62.63Z"/><path d="M20.1073 71.2441L20.2362 71.249C21.1894 71.3112 21.4356 72.0572 21.4989 72.4385L21.5204 72.6602L21.4774 72.7031C21.4032 72.7772 21.2375 72.9423 21.0116 73.168C20.5593 73.6196 19.8632 74.3144 19.1678 75.0088C18.4726 75.703 17.7773 76.3971 17.325 76.8486L16.8202 77.3535L16.8182 77.3545C16.8169 77.3558 16.8166 77.3571 16.8163 77.3574L16.6873 77.3535C15.7335 77.2915 15.4879 76.5444 15.4247 76.1631L15.4022 75.9424L15.4461 75.8984C15.5204 75.8243 15.6859 75.6593 15.912 75.4336C16.3642 74.982 17.0595 74.288 17.7547 73.5938C18.4501 72.8994 19.1462 72.2046 19.5985 71.7529C19.8242 71.5276 19.989 71.3623 20.0633 71.2881C20.0819 71.2696 20.0957 71.2567 20.1024 71.25C20.1056 71.2468 20.1071 71.2443 20.1073 71.2441ZM16.7791 77.0713C16.7033 76.6974 16.4613 76.0765 15.6717 75.9609L16.7791 77.0713ZM20.1434 71.5312C20.2193 71.9053 20.4624 72.5242 21.2518 72.6396L20.6893 72.0762L20.1434 71.5312Z"/><path d="M12.0409 71.367L12.0458 71.3729C12.0525 71.3796 12.0653 71.3925 12.0838 71.4109C12.1581 71.4851 12.3236 71.6501 12.5497 71.8758C13.002 72.3274 13.697 73.0223 14.3924 73.7166C15.0878 74.4109 15.7839 75.1048 16.2362 75.5565C16.4622 75.7822 16.6278 75.9472 16.702 76.0213C16.7221 76.0413 16.7349 76.0542 16.7411 76.0604C16.7426 76.0619 16.7433 76.0636 16.744 76.0643L16.745 76.0652C16.7453 76.0885 16.7341 77.4796 15.3319 77.4803L15.328 77.4764C15.3235 77.4719 15.3145 77.4638 15.3026 77.452C15.2982 77.4476 15.2933 77.4427 15.2879 77.4373C15.2137 77.3632 15.0492 77.1973 14.8231 76.9715C14.3708 76.5199 13.6747 75.826 12.9793 75.1317C12.284 74.4373 11.5889 73.7425 11.1366 73.2908C10.9105 73.0651 10.745 72.9001 10.6708 72.826C10.6522 72.8075 10.6394 72.7946 10.6327 72.7879L10.6268 72.783L10.6493 72.5613C10.7153 72.1633 10.9806 71.3675 12.0409 71.367ZM16.4754 76.0838C15.6862 76.1996 15.4438 76.8203 15.368 77.1942L15.9139 76.6483L16.4754 76.0838ZM10.8963 72.7625C11.6852 72.647 11.9268 72.0281 12.0028 71.6541L10.8963 72.7625Z"/></svg>